<svg width="121" height="47" viewBox="0 0 121 47" fill="none" xmlns="http://www.w3.org/2000/svg">
<path d="M24.5301 15C18.5493 15 17.3086 17.5349 17.24 20V23.5262C17.3083 25.2104 18.9404 28.5788 24.9218 28.5788H120.53C101.582 37.4209 73.6357 43.479 63.53 45.5C53.4243 47.521 31.5556 42.0263 17.2402 39.5C-0.443979 34.4474 1.0301 34.1842 1.0301 16.5C1.0301 2.35266 8.81952 3.8421 14.7142 3C20.609 2.1579 70.2925 3 70.2925 3V15H24.5301Z" fill="#1F1F1F" stroke="#1F1F1F" stroke-width="1.8"/>
<path d="M74.88 22C74.48 22 74.19 21.91 74.01 21.73C73.85 21.55 73.77 21.28 73.77 20.92V2.71C73.77 2.33 73.85 2.05 74.01 1.87C74.19 1.69 74.48 1.6 74.88 1.6H87.36C87.76 1.6 88.03 1.68 88.17 1.84C88.33 2 88.41 2.27 88.41 2.65V3.46C88.41 3.84 88.33 4.12 88.17 4.3C88.03 4.46 87.76 4.54 87.36 4.54H77.61V10.36H84.69C85.09 10.36 85.37 10.44 85.53 10.6C85.69 10.76 85.77 11.03 85.77 11.41V12.16C85.77 12.54 85.69 12.82 85.53 13C85.37 13.16 85.09 13.24 84.69 13.24H77.61V19.09H87.33C87.73 19.09 88.01 19.18 88.17 19.36C88.33 19.52 88.41 19.79 88.41 20.17V20.98C88.41 21.34 88.33 21.6 88.17 21.76C88.01 21.92 87.73 22 87.33 22H74.88ZM92.1652 22C91.7652 22 91.4752 21.91 91.2952 21.73C91.1352 21.55 91.0552 21.28 91.0552 20.92V2.71C91.0552 2.33 91.1352 2.05 91.2952 1.87C91.4752 1.69 91.7652 1.6 92.1652 1.6H98.1652C101.545 1.6 104.125 2.41 105.905 4.03C107.705 5.65 108.605 8.24 108.605 11.8C108.605 18.6 105.125 22 98.1652 22H92.1652ZM98.4052 19.09C100.525 19.09 102.115 18.54 103.175 17.44C104.255 16.34 104.795 14.46 104.795 11.8C104.795 9.14 104.255 7.27 103.175 6.19C102.115 5.09 100.525 4.54 98.4052 4.54H94.8952V19.09H98.4052ZM112.644 22C112.244 22 111.954 21.91 111.774 21.73C111.614 21.55 111.534 21.28 111.534 20.92V2.71C111.534 2.33 111.614 2.05 111.774 1.87C111.954 1.69 112.244 1.6 112.644 1.6H114.234C114.634 1.6 114.924 1.69 115.104 1.87C115.284 2.05 115.374 2.33 115.374 2.71V20.92C115.374 21.28 115.284 21.55 115.104 21.73C114.944 21.91 114.654 22 114.234 22H112.644Z" fill="#1F1F1F"/>
</svg>
